<?xml version="1.0" standalone="no"?>
<!DOCTYPE svg PUBLIC "-//W3C//DTD SVG 20010904//EN"
 "http://www.w3.org/TR/2001/REC-SVG-20010904/DTD/svg10.dtd">
<svg version="1.0" xmlns="http://www.w3.org/2000/svg"
 width="1298.000000pt" height="346.000000pt" viewBox="0 0 1298.000000 346.000000"
 preserveAspectRatio="xMidYMid meet">

<g transform="translate(0.000000,346.000000) scale(0.100000,-0.100000)"
fill="#000000" stroke="none">
<path d="M1222 2814 c-30 -14 -96 -36 -147 -49 -194 -48 -331 -160 -448 -366
-58 -103 -72 -179 -62 -333 9 -149 45 -232 146 -335 115 -118 221 -176 414
-227 106 -28 351 -44 695 -44 318 0 466 33 676 148 71 39 203 178 258 272 96
164 112 315 51 496 -19 57 -45 120 -58 141 -56 89 -193 185 -336 237 -36 13
-95 38 -131 55 l-65 31 -470 0 -470 0 -53 -26z m805 -224 c21 -11 45 -20 54
-20 32 0 91 -31 134 -71 76 -70 115 -180 115 -324 0 -202 -64 -316 -220 -396
-54 -27 -142 -32 -163 -9 -11 12 -13 85 -8 415 3 220 10 406 14 413 11 17 31
15 74 -8z m-593 -25 c33 -33 38 -93 34 -404 -1 -168 1 -322 6 -343 7 -32 6
-37 -14 -48 -60 -32 -177 -5 -259 60 -85 68 -125 156 -137 295 -17 215 83 384
260 440 57 18 92 18 110 0z"/>
<path d="M7895 2755 c-5 -2 -59 -9 -120 -14 -132 -13 -195 -40 -298 -128 -103
-88 -208 -252 -247 -388 -21 -73 -54 -660 -39 -701 11 -32 31 -36 189 -42 151
-5 274 8 297 30 10 10 14 89 18 333 4 176 10 346 15 379 12 75 57 170 106 223
43 46 42 46 131 44 58 -1 66 -4 105 -38 56 -51 95 -114 119 -197 19 -64 20
-87 16 -380 -3 -171 -8 -326 -12 -343 -7 -29 -4 -34 21 -44 76 -30 446 -18
473 14 5 7 11 165 14 362 5 391 7 405 76 512 56 86 90 108 165 105 65 -4 127
-32 146 -67 6 -11 22 -35 36 -54 13 -19 34 -65 45 -101 19 -63 20 -87 16 -391
-3 -178 -6 -335 -8 -349 -6 -40 36 -53 189 -58 152 -5 275 11 304 40 16 16 18
39 18 265 -1 430 -22 539 -139 703 -69 97 -121 138 -242 190 -163 69 -222 84
-354 83 -145 0 -280 -25 -374 -70 -74 -36 -75 -36 -150 -26 -45 6 -107 23
-150 43 -96 42 -216 70 -294 69 -34 0 -66 -2 -72 -4z"/>
<path d="M3444 2536 c-137 -29 -198 -60 -284 -146 -127 -125 -194 -267 -194
-410 0 -65 5 -85 36 -150 84 -177 229 -286 453 -341 179 -43 302 -39 479 17
105 34 159 62 227 121 80 69 115 112 159 196 47 92 64 185 58 324 -4 91 -8
110 -37 165 -49 95 -73 118 -160 149 -42 15 -116 42 -166 60 -88 32 -94 33
-275 36 -163 2 -198 0 -296 -21z m343 -207 c50 -16 81 -46 115 -113 27 -52 32
-75 36 -152 6 -128 -14 -194 -77 -255 -74 -71 -169 -95 -265 -67 -60 18 -137
99 -159 167 -19 59 -23 185 -7 241 13 45 68 128 102 153 51 38 174 50 255 26z"/>
<path d="M6063 2535 c-112 -26 -138 -38 -228 -97 -148 -99 -212 -206 -236
-400 -12 -94 -1 -158 40 -238 29 -56 119 -164 166 -198 54 -39 158 -83 260
-110 134 -35 319 -37 440 -4 134 37 229 90 326 184 128 122 179 235 179 393 0
113 -14 162 -73 252 -51 78 -107 122 -230 178 -119 54 -182 65 -373 64 -140
-1 -186 -5 -271 -24z m376 -219 c84 -40 124 -132 124 -286 1 -88 -3 -112 -20
-145 -48 -91 -150 -155 -249 -155 -61 0 -145 41 -184 90 -103 129 -89 357 28
463 23 20 45 37 50 37 4 1 30 7 57 14 62 17 136 10 194 -18z"/>
<path d="M4455 2516 c-18 -28 -31 -121 -21 -160 12 -47 44 -58 184 -63 183 -5
167 27 165 -356 -1 -172 -5 -342 -8 -380 -6 -66 -6 -67 22 -78 16 -7 87 -12
163 -13 134 -1 196 10 218 37 6 7 12 149 16 352 5 327 13 436 36 459 7 7 20 6
43 -4 23 -11 68 -15 160 -14 164 1 163 0 143 112 -7 45 -19 89 -25 96 -10 12
-94 15 -454 20 -243 4 -483 9 -534 12 -89 5 -92 5 -108 -20z"/>
<path d="M10269 2506 c-58 -13 -121 -32 -140 -41 -60 -31 -147 -106 -191 -163
-88 -117 -119 -210 -120 -358 0 -67 4 -89 26 -132 71 -140 210 -253 371 -302
175 -53 307 -55 490 -7 46 12 53 11 95 -10 37 -19 64 -23 155 -25 118 -3 273
8 294 22 11 6 11 23 1 94 -9 62 -11 203 -7 501 5 375 3 417 -11 432 -15 14
-42 15 -252 9 -283 -9 -222 -9 -430 -2 -159 5 -185 3 -281 -18z m373 -199 c55
-26 103 -87 124 -155 17 -54 20 -226 4 -266 -19 -50 -98 -124 -156 -146 -140
-52 -273 0 -341 133 -22 43 -25 64 -25 151 -1 133 27 201 107 262 61 47 211
58 287 21z m216 -710 c4 -17 -33 -41 -48 -32 -14 9 -12 21 6 40 19 19 38 15
42 -8z"/>
<path d="M11537 2503 c-11 -21 -16 -110 -21 -373 -8 -353 -19 -568 -31 -607
-11 -36 27 -52 143 -59 107 -7 243 9 262 31 5 7 11 161 14 381 4 374 10 438
42 451 9 3 28 -4 44 -16 27 -19 42 -21 172 -21 79 0 157 3 173 8 l30 9 -3 94
c-2 52 -6 102 -8 112 -5 16 -33 17 -404 17 l-399 0 -14 -27z"/>
<path d="M1702 1041 c-17 -23 -36 -33 -87 -44 -76 -18 -116 -45 -185 -128 -86
-103 -97 -141 -57 -200 15 -23 35 -37 60 -43 28 -7 36 -14 32 -25 -18 -47 -17
-69 5 -81 32 -17 71 3 125 62 36 40 48 48 68 43 31 -8 67 11 133 69 76 67 114
129 114 186 0 25 -6 53 -12 62 -21 24 -83 58 -110 58 -33 0 -63 23 -55 43 11
29 -9 27 -31 -2z m113 -145 c-10 -46 -42 -110 -69 -135 -39 -36 -123 -27 -100
11 30 49 112 148 129 156 33 15 47 4 40 -32z m-205 25 c0 -6 -9 -25 -19 -43
-11 -19 -19 -49 -18 -71 2 -65 -70 -110 -111 -69 -30 30 -19 52 58 126 64 62
90 78 90 57z"/>
<path d="M6250 1042 c-47 -21 -80 -62 -80 -100 0 -26 -42 -128 -107 -260 -62
-126 -62 -137 9 -149 35 -5 38 -3 80 56 41 58 45 60 85 61 39 0 49 6 117 70
83 79 106 118 106 180 0 59 -13 76 -84 109 -73 34 -105 43 -126 33z m128 -100
c4 -25 -38 -103 -74 -139 -26 -26 -62 -30 -70 -8 -6 14 54 119 89 157 23 24
51 20 55 -10z"/>
<path d="M10808 1019 c-24 -13 -23 -29 1 -29 21 0 45 23 34 33 -8 9 -15 8 -35
-4z"/>
<path d="M11305 1012 c-37 -31 -112 -136 -129 -180 -20 -53 -20 -73 1 -116 22
-48 61 -61 114 -39 38 15 43 15 75 0 51 -25 84 -2 84 56 0 14 20 78 45 141 25
64 43 121 40 126 -12 19 -51 10 -77 -17 -33 -35 -54 -77 -69 -137 -13 -51 -49
-80 -92 -74 -31 4 -33 33 -5 76 35 54 80 160 73 172 -9 15 -38 11 -60 -8z"/>
<path d="M10250 990 c-41 -44 -59 -89 -66 -167 l-7 -70 32 -19 c17 -10 31 -22
31 -26 0 -15 -75 -91 -112 -115 -46 -28 -48 -46 -9 -63 55 -22 115 11 197 112
33 39 67 80 77 90 34 36 117 170 128 208 38 126 -80 69 -137 -67 -25 -59 -50
-83 -74 -68 -15 9 -12 50 6 93 21 51 21 92 -1 108 -26 20 -33 18 -65 -16z"/>
<path d="M10924 995 c-9 -15 -59 -45 -119 -75 -114 -56 -145 -88 -145 -153 0
-48 42 -92 98 -102 83 -14 207 47 200 98 -4 28 -41 34 -73 13 -32 -21 -94 -21
-102 0 -8 22 12 37 97 74 124 53 160 105 104 149 -34 27 -40 26 -60 -4z"/>
<path d="M5820 1001 c-74 -9 -111 -31 -197 -115 -72 -71 -73 -72 -73 -123 0
-44 5 -58 31 -88 26 -30 37 -35 73 -35 22 0 47 4 55 9 9 6 29 4 54 -5 84 -30
99 -17 108 83 5 54 17 103 39 155 17 43 30 87 28 100 -3 26 -26 30 -118 19z
m-10 -66 c0 -5 -31 -77 -59 -135 -12 -26 -23 -36 -44 -38 -32 -4 -45 18 -30
51 25 53 133 153 133 122z"/>
<path d="M7892 996 c-28 -15 -71 -67 -113 -137 -26 -44 -33 -65 -33 -112 -1
-50 2 -62 23 -78 29 -24 70 -24 109 -2 29 17 31 17 50 0 20 -19 67 -23 77 -7
3 5 13 36 21 67 8 32 31 97 50 145 37 91 40 121 13 126 -40 8 -105 -77 -129
-168 -14 -53 -32 -70 -76 -70 -37 0 -52 24 -30 49 8 9 28 45 45 81 44 92 41
132 -7 106z"/>
<path d="M8787 996 c-31 -32 -57 -85 -72 -148 -17 -75 -10 -112 24 -123 33
-10 25 -36 -34 -102 -30 -33 -55 -68 -55 -76 0 -46 95 -21 148 38 176 197 269
346 249 399 -17 44 -100 -22 -131 -104 -22 -55 -43 -80 -69 -80 -17 0 -19 5
-14 43 3 23 10 59 15 79 16 62 -24 110 -61 74z"/>
<path d="M9470 988 c-24 -26 -26 -44 -4 -52 30 -12 54 3 54 34 0 36 -24 45
-50 18z"/>
<path d="M9753 868 c-79 -78 -143 -149 -143 -158 0 -25 38 -60 65 -60 37 0 76
41 125 129 25 44 51 81 58 81 16 0 16 -1 -12 -64 -14 -30 -22 -64 -19 -74 5
-22 71 -62 100 -62 39 0 43 18 43 175 0 161 -4 175 -49 175 -18 0 -61 -36
-168 -142z"/>
<path d="M3963 993 c-21 -8 -85 -104 -120 -180 -18 -40 -38 -75 -43 -78 -19
-12 -10 -53 16 -74 47 -37 114 -17 114 33 0 32 61 171 88 199 29 31 57 37 49
10 -30 -92 -59 -169 -67 -177 -34 -34 13 -90 71 -84 38 3 41 9 90 143 18 50
40 100 48 112 19 27 49 39 63 25 13 -13 -38 -156 -69 -193 -30 -36 -27 -68 10
-89 24 -13 30 -13 54 0 37 21 93 163 93 235 0 76 -15 85 -147 96 -59 4 -117
10 -128 13 -35 8 -110 14 -122 9z"/>
<path d="M6765 951 c-20 -27 -50 -56 -69 -65 -50 -24 -61 -41 -47 -72 6 -15 9
-41 5 -59 -3 -18 -3 -43 1 -55 7 -23 75 -59 112 -60 37 0 117 31 144 56 28 27
49 31 49 10 0 -20 48 -56 76 -56 28 0 32 6 67 105 62 177 72 214 59 227 -18
18 -109 -80 -118 -128 -4 -20 -20 -52 -36 -70 -31 -35 -50 -38 -41 -6 10 40
-22 87 -81 118 -47 24 -57 33 -55 54 4 67 -18 68 -66 1z m93 -143 c4 -22 -34
-60 -56 -56 -27 5 -27 39 -1 60 28 21 52 20 57 -4z"/>
<path d="M9292 940 c-34 -32 -69 -75 -77 -94 -54 -129 60 -229 188 -165 55 28
77 48 77 70 0 24 -19 29 -59 13 -47 -20 -78 -17 -95 7 -13 19 -13 26 0 62 8
23 22 52 30 65 8 13 22 41 29 63 14 38 13 39 -8 39 -13 0 -48 -25 -85 -60z"/>
<path d="M2712 955 c-35 -45 -142 -243 -142 -265 0 -40 83 -71 112 -42 6 6 20
44 30 83 10 40 26 85 35 102 21 35 90 93 100 84 9 -9 -33 -130 -64 -184 -29
-50 -21 -75 27 -92 45 -15 77 0 85 41 10 50 33 114 56 161 45 89 125 122 100
41 -5 -16 -14 -48 -20 -71 -6 -23 -27 -60 -46 -83 -19 -23 -35 -48 -35 -55 0
-45 87 -62 114 -23 9 12 16 29 16 38 0 8 11 42 25 75 28 68 33 146 10 168 -9
10 -47 17 -107 21 -51 4 -115 11 -143 16 -125 21 -123 22 -153 -15z"/>
<path d="M4689 970 c-46 -24 -135 -124 -149 -167 -16 -45 3 -105 41 -137 61
-52 156 -24 238 69 62 71 74 137 35 193 -25 36 -48 28 -68 -25 -9 -27 -30 -73
-44 -103 -24 -48 -31 -55 -60 -58 -23 -2 -34 2 -39 13 -10 28 41 122 105 191
40 44 5 58 -59 24z"/>
<path d="M3478 972 c-20 -8 -102 -84 -140 -131 -56 -66 -26 -178 55 -203 51
-15 102 1 161 53 84 74 119 183 76 234 -10 12 -50 22 -50 12 0 -1 -11 -33 -25
-71 -44 -121 -73 -153 -123 -135 -44 17 -20 86 64 185 24 28 40 54 37 58 -8 8
-33 7 -55 -2z"/>
<path d="M5147 920 c-84 -77 -108 -131 -86 -193 21 -62 68 -90 141 -85 75 5
131 43 154 105 14 36 15 51 6 80 -10 33 -9 40 14 71 19 23 24 40 20 58 -8 32
-30 30 -75 -5 -36 -29 -50 -34 -83 -32 -21 1 -24 31 -6 49 9 9 9 12 -4 12 -8
0 -45 -27 -81 -60z m97 -106 c9 -8 16 -20 16 -25 0 -12 -37 -49 -49 -49 -23 0
-41 14 -41 32 0 51 42 75 74 42z"/>
<path d="M2202 930 c-74 -59 -112 -121 -112 -183 0 -42 5 -54 34 -83 28 -28
42 -34 75 -34 85 0 159 55 207 155 25 50 26 58 15 95 -11 38 -42 67 -60 56 -4
-3 -14 -27 -21 -53 -18 -67 -56 -140 -79 -153 -56 -29 -90 5 -66 64 17 41 103
156 117 156 4 0 8 5 8 10 0 6 -15 10 -34 10 -24 0 -47 -11 -84 -40z"/>
</g>
</svg>
